<svg width="74" height="78" viewBox="0 0 74 78" fill="none" xmlns="http://www.w3.org/2000/svg">
<path d="M22.3146 13.5635C21.6898 13.5635 21.1831 14.1084 21.1831 14.7808C21.1831 16.2575 20.0664 17.459 18.6939 17.459C17.3214 17.459 16.2047 16.2575 16.2047 14.7808C16.2047 13.3041 17.3214 12.1027 18.6939 12.1027C19.3187 12.1027 19.8254 11.5577 19.8254 10.8853C19.8254 10.2129 19.3189 9.66797 18.6939 9.66797C16.0736 9.66797 13.9419 11.9616 13.9419 14.7807C13.9419 17.5997 16.0737 19.8934 18.6939 19.8934C21.3141 19.8934 23.4459 17.5997 23.4459 14.7807C23.4461 14.1084 22.9394 13.5635 22.3146 13.5635Z" fill="white"/>
<path d="M22.3146 27.8465C21.6898 27.8465 21.1831 28.3915 21.1831 29.0639C21.1831 30.5406 20.0664 31.742 18.6939 31.742C17.3214 31.742 16.2047 30.5406 16.2047 29.0639C16.2047 27.5872 17.3214 26.3858 18.6939 26.3858C19.3187 26.3858 19.8254 25.8408 19.8254 25.1684C19.8254 24.496 19.3189 23.951 18.6939 23.951C16.0736 23.951 13.9419 26.2447 13.9419 29.0638C13.9419 31.8828 16.0737 34.1765 18.6939 34.1765C21.3141 34.1765 23.4459 31.8828 23.4459 29.0638C23.4461 28.3917 22.9394 27.8465 22.3146 27.8465Z" fill="white"/>
<path d="M40.6865 31.3079H32.2384C31.6136 31.3079 31.1069 31.8529 31.1069 32.5253C31.1069 33.1976 31.6135 33.7426 32.2384 33.7426H40.6865C41.3113 33.7426 41.818 33.1976 41.818 32.5253C41.818 31.8529 41.3115 31.3079 40.6865 31.3079Z" fill="white"/>
<path d="M40.6865 26.1139H32.2384C31.6136 26.1139 31.1069 26.6589 31.1069 27.3313C31.1069 28.0037 31.6135 28.5486 32.2384 28.5486H40.6865C41.3113 28.5486 41.818 28.0037 41.818 27.3313C41.818 26.6589 41.3115 26.1139 40.6865 26.1139Z" fill="white"/>
<path d="M38.2728 45.5909H32.2384C31.6136 45.5909 31.1069 46.1359 31.1069 46.8083C31.1069 47.4807 31.6135 48.0256 32.2384 48.0256H38.2728C38.8976 48.0256 39.4043 47.4807 39.4043 46.8083C39.4043 46.1359 38.8976 45.5909 38.2728 45.5909Z" fill="white"/>
<path d="M40.6865 40.3972H32.2384C31.6136 40.3972 31.1069 40.9421 31.1069 41.6145C31.1069 42.2869 31.6135 42.8318 32.2384 42.8318H40.6865C41.3113 42.8318 41.818 42.2869 41.818 41.6145C41.818 40.9421 41.3115 40.3972 40.6865 40.3972Z" fill="white"/>
<path d="M51.5483 17.0247H32.2384C31.6136 17.0247 31.1069 17.5696 31.1069 18.242C31.1069 18.9144 31.6135 19.4594 32.2384 19.4594H51.5482C52.173 19.4594 52.6797 18.9144 52.6797 18.242C52.6797 17.5696 52.1732 17.0247 51.5483 17.0247Z" fill="white"/>
<path d="M46.7208 11.8307H32.2384C31.6136 11.8307 31.1069 12.3757 31.1069 13.0481C31.1069 13.7205 31.6135 14.2655 32.2384 14.2655H46.7208C47.3456 14.2655 47.8523 13.7205 47.8523 13.0481C47.8523 12.3757 47.3458 11.8307 46.7208 11.8307Z" fill="white"/>
<path d="M22.3146 42.1297C21.6898 42.1297 21.1831 42.6747 21.1831 43.3471C21.1831 44.8238 20.0664 46.0252 18.6939 46.0252C17.3214 46.0252 16.2047 44.8238 16.2047 43.3471C16.2047 41.8704 17.3214 40.6689 18.6939 40.6689C19.3187 40.6689 19.8254 40.1239 19.8254 39.4516C19.8254 38.7792 19.3189 38.2342 18.6939 38.2342C16.0736 38.2342 13.9419 40.5279 13.9419 43.3469C13.9419 46.166 16.0737 48.4597 18.6939 48.4597C21.3141 48.4597 23.4459 46.166 23.4459 43.3469C23.4461 42.6747 22.9394 42.1297 22.3146 42.1297Z" fill="white"/>
<path d="M58.487 0H4.65125C2.08667 0 0 1.71101 0 3.81425V58.3499C0 60.4531 2.08648 62.1641 4.65125 62.1641H31.5692C32.389 62.1641 33.0537 61.6191 33.0537 60.9468C33.0537 60.2745 32.3891 59.7294 31.5692 59.7294H4.65125C3.72356 59.7294 2.96881 59.1105 2.96881 58.3497V3.81425C2.96881 3.0535 3.72356 2.43457 4.65125 2.43457H58.487C59.4147 2.43457 60.1694 3.0535 60.1694 3.81425V44.067C60.1694 44.7392 60.834 45.2843 61.6539 45.2843C62.4737 45.2843 63.1384 44.7394 63.1384 44.067V3.81425C63.1382 1.71101 61.0518 0 58.487 0Z" fill="white"/>
<path d="M70.1037 49.0962C69.0521 48.9834 68.0011 49.3041 67.1692 49.9836C66.5066 48.7873 65.3767 47.9387 64.0693 47.7977C63.0175 47.6851 61.9666 48.0058 61.1349 48.6851C60.4722 47.4889 59.3423 46.6402 58.035 46.4993C57.2319 46.4131 56.43 46.5795 55.7253 46.9653V31.4629C55.7253 30.2043 55.2277 28.9977 54.3595 28.1527C53.4923 27.3084 52.3235 26.8963 51.1528 27.0223C49.0642 27.2473 47.4281 29.2792 47.4281 31.6482V47.1897L44.1021 50.7682C42.3347 52.6698 41.6213 55.3678 42.1938 57.9856L44.7189 69.5316C45.742 74.2102 49.5765 77.4777 54.0437 77.4777H64.2487C69.5308 77.4777 73.8282 72.8542 73.8282 67.171V53.7224C73.8284 51.3531 72.1924 49.3212 70.1037 49.0962ZM71.5654 67.1707C71.5654 71.5113 68.2832 75.0426 64.2489 75.0426H54.0438C50.6319 75.0426 47.703 72.547 46.9216 68.9736L44.3965 57.4276C44.0047 55.6366 44.4929 53.7904 45.7022 52.4894L47.4281 50.6324V54.8353C47.4281 55.5075 47.9346 56.0526 48.5596 56.0526C49.1845 56.0526 49.6911 55.5076 49.6911 54.8353V31.648C49.6911 30.5145 50.4322 29.5466 51.3785 29.4449C51.922 29.3861 52.4418 29.5686 52.8415 29.958C53.2362 30.3423 53.4626 30.8909 53.4626 31.4631V52.8878C53.4626 53.56 53.9692 54.1052 54.5941 54.1052C55.219 54.1052 55.7256 53.5602 55.7256 52.8878V50.9401C55.7256 50.3679 55.9518 49.8193 56.3467 49.435C56.7467 49.0456 57.2662 48.863 57.8097 48.9219C58.7559 49.0238 59.4971 49.9916 59.4971 51.1252V54.186C59.4971 54.8582 60.0037 55.4033 60.6286 55.4033C61.2534 55.4033 61.7601 54.8583 61.7601 54.186V52.2382C61.7601 51.6661 61.9863 51.1174 62.3812 50.7331C62.7812 50.3438 63.3009 50.1612 63.8442 50.22C64.7904 50.3219 65.5316 51.2898 65.5316 52.4233V55.4843C65.5316 56.1565 66.0382 56.7016 66.6631 56.7016C67.2879 56.7016 67.7946 56.1566 67.7946 55.4843V53.5365C67.7946 52.9643 68.0208 52.4157 68.4157 52.0314C68.8157 51.6422 69.3349 51.4594 69.8787 51.5185C70.8249 51.6202 71.5661 52.5881 71.5661 53.7216V67.1707H71.5654Z" fill="white"/>
</svg>
